<svg xmlns="http://www.w3.org/2000/svg" width="24" height="24" class="queens-icon-svg"><g clip-path="url(#a)"><path d="M23.25 7c0 .69-.56 1.25-1.25 1.25-.11 0-.22-.04-.32-.07L19 17.99H5L2.32 8.18c-.11.03-.21.07-.32.07A1.25 1.25 0 1 1 3.25 7c0 .31-.12.59-.31.8L9 13l2.65-8.82c-.51-.15-.9-.61-.9-1.18a1.25 1.25 0 0 1 2.5 0c0 .56-.38 1.02-.9 1.18L15 13l6.06-5.2a1.21 1.21 0 0 1-.31-.8 1.25 1.25 0 0 1 2.5 0ZM19 19H5c-.55 0-1 .45-1 1s.45 1 1 1h14c.55 0 1-.45 1-1s-.45-1-1-1Z"/></g><defs><clipPath id="a"><path fill="#fff" d="M0 0h24v24H0z"/></clipPath></defs></svg>